<?xml version="1.0" standalone="no"?>
<!DOCTYPE svg PUBLIC "-//W3C//DTD SVG 20010904//EN"
 "http://www.w3.org/TR/2001/REC-SVG-20010904/DTD/svg10.dtd">
<svg version="1.0" xmlns="http://www.w3.org/2000/svg"
 width="1000.000000pt" height="1000.000000pt" viewBox="0 0 1000.000000 1000.000000"
 preserveAspectRatio="xMidYMid meet">
<metadata>
Created by potrace 1.11, written by Peter Selinger 2001-2013
</metadata>
<g transform="translate(0.000000,1000.000000) scale(0.100000,-0.100000)"
fill="#000000" stroke="none">
<path d="M5551 7842 c-19 -9 -43 -28 -52 -42 -19 -26 -1449 -4964 -1449 -5002
0 -34 41 -86 80 -102 60 -24 258 -76 289 -76 40 0 86 41 105 93 39 104 1426
4931 1426 4961 0 38 -29 80 -68 100 -22 11 -277 86 -293 86 -2 0 -19 -8 -38
-18z"/>
<path d="M3365 7129 c-11 -6 -428 -419 -928 -918 -642 -641 -910 -916 -918
-939 -24 -73 -57 -37 905 -1000 632 -633 914 -909 943 -923 37 -18 47 -19 80
-8 39 13 203 163 254 233 33 45 38 98 13 136 -9 14 -355 364 -768 778 l-751
752 762 763 c803 803 786 784 768 854 -7 31 -213 246 -257 269 -32 17 -75 18
-103 3z"/>
<path d="M6515 7112 c-62 -46 -223 -215 -235 -248 -28 -73 -56 -42 766 -864
l764 -765 -760 -760 c-535 -535 -763 -770 -771 -792 -18 -56 2 -89 129 -216
125 -125 156 -143 214 -126 25 7 264 240 936 912 497 496 910 914 918 929 8
15 14 44 14 65 0 37 -24 62 -924 961 -908 909 -924 924 -967 929 -37 4 -50 0
-84 -25z"/>
</g>
</svg>
